<svg clip-rule="evenodd" fill-rule="evenodd" stroke-linejoin="round" stroke-miterlimit="2" viewBox="0 0 513 513" xmlns="http://www.w3.org/2000/svg"><g fill-rule="nonzero"><path d="m502.971 128.605-241.47-85.197c-3.236-1.143-6.765-1.143-10.001 0l-241.47 85.197c-6.004 2.118-10.022 7.789-10.03 14.155-.008 6.367 3.997 12.047 9.995 14.179l241.471 85.844c1.628.579 3.332.869 5.034.869 1.703 0 3.406-.29 5.034-.869l241.471-85.844c5.998-2.132 10.002-7.812 9.995-14.179-.008-6.366-4.026-12.037-10.029-14.155z"/><path d="m476.903 329.216v-131.096l-30.059 10.686v120.41c-9.054 5.211-15.154 14.975-15.154 26.172 0 11.196 6.1 20.961 15.154 26.172v73.86c0 8.3 6.729 15.029 15.029 15.029 8.301 0 15.03-6.729 15.03-15.029v-73.859c9.053-5.21 15.154-14.976 15.154-26.172 0-11.197-6.1-20.962-15.154-26.173z"/><path d="m256.5 273.711c-5.159 0-10.24-.877-15.102-2.606l-135.748-48.259v66.137c0 16.181 16.88 29.865 50.171 40.67 29.017 9.418 64.773 14.605 100.679 14.605s71.661-5.187 100.679-14.605c33.291-10.805 50.171-24.489 50.171-40.67v-66.137l-135.747 48.259c-4.863 1.729-9.944 2.606-15.103 2.606z"/></g></svg>