<svg enable-background="new 0 0 293.129 293.129" viewBox="0 0 293.129 293.129" xmlns="http://www.w3.org/2000/svg"><path d="m162.179 140.514c3.377-1.727 7.139-2.64 11.042-2.64 6.468 0 12.549 2.511 17.133 7.071l9.868-9.867c24.42 8.56 52.664 3.08 72.186-16.441 16.426-16.426 22.904-39.026 19.446-60.329-.381-2.346-2.042-4.281-4.303-5.011-2.261-.731-4.743-.137-6.423 1.544l-14.652 14.652c-11.932 11.932-31.279 11.932-43.211 0-11.933-11.932-11.933-31.279 0-43.211l14.652-14.652c1.681-1.681 2.28-4.163 1.548-6.425-.731-2.263-2.669-3.92-5.016-4.301-21.302-3.458-43.903 3.02-60.328 19.446-19.812 19.812-25.144 48.604-16.032 73.269l-21.402 21.402z"/><path d="m123.179 179.296-25.385-25.385-88.765 88.764c-11.542 11.542-11.542 30.255 0 41.797s30.255 11.542 41.797 0l76.521-76.52c-7.718-7.759-9.109-19.473-4.168-28.656z"/><path d="m179.795 155.597c-1.815-1.815-4.195-2.723-6.574-2.723s-4.759.908-6.574 2.723l-5.299 5.299-94.392-94.392 4.412-4.412c4.02-4.019 3.521-10.686-1.061-14.06l-38.512-28.363c-3.701-2.725-8.837-2.338-12.087.912l-16.352 16.353c-3.25 3.25-3.637 8.387-.912 12.087l28.362 38.512c3.374 4.581 10.037 5.085 14.06 1.061l4.412-4.413 94.392 94.392-5.672 5.672c-3.631 3.631-3.631 9.517 0 13.148l87.079 87.079c11.542 11.542 30.255 11.542 41.797 0s11.542-30.255 0-41.797z"/></svg>