<svg enable-background="new 0 0 469.333 469.333" viewBox="0 0 469.333 469.333" xmlns="http://www.w3.org/2000/svg"><path d="m234.56 128c23.573 0 42.667-19.093 42.667-42.667 0-8-2.24-15.573-6.08-21.973l-36.587-63.36-36.587 63.36c-3.84 6.4-6.08 13.973-6.08 21.973 0 23.574 19.094 42.667 42.667 42.667z"/><path d="m362.56 192h-106.667v-42.667h-42.667v42.667h-106.666c-35.307 0-64 28.693-64 64v32.853c0 23.04 18.773 41.813 41.813 41.813 11.2 0 21.653-4.373 29.547-12.267l45.653-45.547 45.547 45.44c15.787 15.787 43.307 15.787 59.093 0l45.653-45.44 45.547 45.44c7.893 7.893 18.347 12.267 29.547 12.267 23.04 0 41.813-18.773 41.813-41.813v-32.746c-.213-35.307-28.906-64-64.213-64z"/><path d="m332.587 341.013-22.933-22.933-23.04 22.933c-27.84 27.84-76.48 27.84-104.32 0l-22.934-22.933-23.04 22.933c-13.76 13.973-32.213 21.653-51.947 21.653-15.467 0-29.867-4.907-41.813-13.12v98.454c0 11.733 9.6 21.333 21.333 21.333h341.333c11.733 0 21.333-9.6 21.333-21.333v-98.453c-11.947 8.213-26.24 13.12-41.813 13.12-19.733 0-38.186-7.68-52.159-21.654z"/></svg>