<svg clip-rule="evenodd" fill-rule="evenodd" stroke-linejoin="round" stroke-miterlimit="2" viewBox="0 0 256 256" xmlns="http://www.w3.org/2000/svg"><path d="m138.801 22.278c16.82-22.17 40.204-22.278 40.204-22.278s3.479 20.843-13.231 40.922c-17.843 21.44-38.123 17.931-38.123 17.931s-3.808-16.861 11.15-36.575zm-9.011 51.176c8.654 0 24.714-11.895 45.618-11.895 35.983 0 50.139 25.604 50.139 25.604s-27.686 14.156-27.686 48.503c0 38.746 34.489 52.099 34.489 52.099s-24.109 67.859-56.674 67.859c-14.957 0-26.585-10.079-42.344-10.079-16.06 0-31.998 10.455-42.378 10.455-29.736.001-67.304-64.37-67.304-116.114 0-50.908 31.799-77.614 61.625-77.614 19.389 0 34.435 11.182 44.515 11.182z" fill-rule="nonzero"/></svg>