<svg viewBox="0 0 630 630" xmlns="http://www.w3.org/2000/svg"><path d="m400 3150v-2750h5500v5500h-5500zm4432.3 219.1c139.7-34.9 246.2-96.9 344-198.2 50.6-54.1 125.7-152.8 131.8-176.3 1.7-7-237.5-167.6-382.4-257.5-5.2-3.5-26.2 19.2-49.8 54.1-70.7 103-144.9 147.5-258.4 155.4-166.7 11.3-274.1-76-273.3-221.7 0-42.8 6.1-68.1 23.6-103 36.7-76 104.8-121.3 318.7-213.9 393.7-169.4 562.2-281.1 667-440 117-177.2 143.2-460.1 63.7-670.5-87.3-228.7-303.8-384.1-608.5-435.6-94.3-16.6-317.8-14-419 4.4-220.9 39.3-430.4 148.4-559.6 291.6-50.6 55.9-149.3 201.7-143.2 212.1 2.6 3.5 25.3 17.5 50.6 32.3 24.4 14 117 67.2 204.3 117.9l158 91.7 33.2-48.9c46.3-70.7 147.5-167.6 208.7-199.9 175.5-92.5 416.4-79.4 535.2 27.1 50.6 46.3 71.6 94.3 71.6 165 0 63.7-7.9 91.7-41 139.7-42.8 61.1-130.1 112.6-378 220-283.7 122.2-406 198.2-517.7 318.7-64.6 69.8-125.7 181.6-151 275-21 77.7-26.2 272.4-9.6 351 58.5 274.1 265.4 465.3 564 522.1 96.7 18 321.9 11 417.1-12.6zm-1291.2-229.6 1.7-225.2h-715.8v-2034.1h-506.4v2034.2h-715.8v220.9c0 122.2 2.6 224.4 6.1 227 2.6 3.5 438.3 5.2 966.4 4.4l961.2-2.6z" transform="matrix(.1 0 0 -.1 0 630)"/></svg>