<svg clip-rule="evenodd" fill-rule="evenodd" stroke-linejoin="round" stroke-miterlimit="1.414" viewBox="0 0 2222 2500" xmlns="http://www.w3.org/2000/svg"><path d="m2221.89 743.731c.11 343.359.11 1029.869.11 1029.869-.02 41.12-8.64 77.54-25.97 108.94-17.85 32.26-44.93 59.27-81.6 80.51-295.85 170.73-591.97 340.93-887.69 511.84-79.74 46.08-157.05 44.42-236.214-2.34-117.714-69.52-707.282-407.55-882.95-509.39-36.663-21.25-63.752-48.24-81.598-80.53-17.359-31.4-25.961-67.82-25.978-108.93.113-343.36 0-686.7.113-1030.047.017-83.386 35.222-147.537 107.559-189.46 175.659-101.839 765.149-439.895 882.889-509.402 79.129-46.732 156.439-48.407 236.159-2.344 295.71 170.903 591.81 341.112 887.62 511.841 35.83 20.78 62.55 47.044 80.39 78.395 18.16 31.872 27.14 69.012 27.16 111.048zm-881.26 358.439 345.79 2.44c0-144.078-145.84-496.907-563.94-496.907-266.394 0-624.518 169.358-624.518 656.267 0 486.91 351.068 645.69 624.518 645.69 442.81 0 548.64-306.41 548.64-479.57l-329.89-18.86s8.83 200.28-220.52 200.28c-211.695 0-247.021-259.33-247.021-347.54 0-134.07 47.677-349.301 247.021-349.301 199.24 0 219.9 187.271 219.92 187.501z" fill-rule="nonzero"/></svg>