<svg clip-rule="evenodd" fill-rule="evenodd" stroke-linejoin="round" stroke-miterlimit="2" viewBox="0 0 256 256" xmlns="http://www.w3.org/2000/svg"><path d="m190.5 3c34.495 0 62.5 28.005 62.5 62.5v125c0 34.495-28.005 62.5-62.5 62.5h-125c-34.495 0-62.5-28.005-62.5-62.5v-125c0-34.495 28.005-62.5 62.5-62.5zm12.5 188.388v-11.249h-80.988v11.249zm-116.784-3.904.066-20.049c8.293-.397 15.009-2.867 20.148-7.41 5.139-4.544 7.708-10.212 7.708-17.005s-2.382-12.329-7.146-16.608-11.689-7.102-20.776-8.469v-28.518c3.529.176 7.069.783 10.619 1.819 3.551 1.037 7.202 2.504 10.951 4.4v-11.446c-3.705-1.147-7.344-2.052-10.917-2.713-3.573-.662-7.102-1.103-10.587-1.324l-.066-15.549h-6.617v15.549c-8.425.618-14.965 2.989-19.618 7.113-4.654 4.125-6.981 9.65-6.981 16.575 0 6.617 2.228 11.932 6.683 15.946s11.094 6.705 19.916 8.073v30.304c-4.367-.088-8.789-.86-13.266-2.316-4.478-1.455-8.922-3.551-13.333-6.286v11.91c4.323 1.809 8.701 3.22 13.134 4.235s8.9 1.632 13.399 1.853l.066 19.916zm0-58.293v28.716c4.852-.132 8.645-1.477 11.38-4.036 2.735-2.558 4.103-6.043 4.103-10.454 0-4.102-1.235-7.29-3.706-9.561-2.47-2.272-6.396-3.827-11.777-4.665zm-6.617-12.572v-27.327c-4.588.177-8.172 1.5-10.752 3.97-2.581 2.471-3.871 5.779-3.871 9.925 0 3.794 1.202 6.794 3.606 8.999 2.404 2.206 6.077 3.683 11.017 4.433z"/></svg>