<svg viewBox="0 0 5000 5500" xmlns="http://www.w3.org/2000/svg"><path d="m975.2 2298.4h-158.7v132.4h158.9c61.7 0 97.2-26.5 97.2-70.7-.4-43.9-35.6-61.7-97.4-61.7zm70.5-211.7c0-44.2-35.2-61.7-88.2-61.7h-132.4v132.4h123.7c61.7-8.7 96.9-26.5 96.9-70.7z"/><path d="m233.9 392.5v4500h4500v-4500h-4500zm1579.5 564.8h644.3v176.4h-220.7v555.8h-202.9v-555.5h-220.6v-176.6h-.1zm-44 0v167.7h-388.2v114.7h352.9v158.9h-352.9v114.7h397.2v176.4h-591.3l-8.7-732.5h591zm-635.2 1253.1c84.1 15.2 144.8 91 141.2 176.4 0 123.7-105.7 202.9-273.6 202.9h-379.5v-732.5h379.4c72.6-2.6 143.9 19.2 202.9 61.7 30.3 33.9 46.2 78.2 44.2 123.7 2.1 74.6-44.4 142.7-114.6 167.8zm-397.2-759c24.9 40.1 67.6 66.5 114.7 70.7 53 0 79.5-35.2 79.5-105.9v-467.6h202.8v467.6c1 9.4 1.7 19 1.7 28.4 0 135.4-111.2 246.6-246.6 246.6-9.6 0-19-.6-28.7-1.7-99.9 13.2-199.3-31.4-255.9-114.7zm1570.8 2876.5h-1685.5v-282.3h1685.4v282.3zm167.4-1729.4-53-132.4h-282.3l-53 132.4h-211.9l3.9-8.7h-127.3l-149.9-220.6h-88.2v220.6h-202.9v-732.5h344.2c87.2-8.4 173.6 20.4 238.2 79.5 43.3 44.6 66 105.4 61.7 167.7 1.9 99.8-57.9 191.1-149.9 229.4l113.7 164.6 274.6-641.1h194.1l308.8 741.2zm450.1-8.7h-202.9v-732.5h202.9zm741.2 0h-176.4l-308.8-397.2v405.9h-202.9v-741.2h185.4l300 388.2v-388.2h202.9v732.5zm361.7 8.7c-125.6 9.6-249.6-31.6-344.2-114.7l114.7-132.4c65.3 58.5 150.6 89.9 238.2 88.2 53 0 88.2-17.7 88.2-53 0-35.2-26.5-44.2-123.7-70.7-158.9-35.2-273.6-79.5-273.6-229.4 0-132.4 105.9-238.2 282.3-238.2 108-3 214.2 31.1 300 97.2l-105.9 141.2c-60-41.4-130.2-66-202.9-70.7-53 0-70.7 17.7-70.7 44.2 0 35.2 26.5 44.2 123.7 70.7 167.7 35.2 273.6 88.2 273.6 229.4.2 150-114.3 238.2-299.7 238.2z"/><path d="m1645.7 2033.7h-132.4v176.4h132.4c70.7 0 105.9-35.2 105.9-88.2.1-61.7-43.9-88.2-105.9-88.2zm564.9 264.7h158.6l-79.2-202.7z"/></svg>