<svg clip-rule="evenodd" fill-rule="evenodd" stroke-linejoin="round" stroke-miterlimit="2" viewBox="0 0 512 512" xmlns="http://www.w3.org/2000/svg"><path d="m468.132 43.868c-4.921-4.921-12.911-4.921-17.832 0l-406.432 406.432c-4.921 4.921-4.921 12.911 0 17.832s12.911 4.921 17.832 0l406.432-406.432c4.921-4.921 4.921-12.911 0-17.832z"/><path d="m154.372 389.448 13.202 66.476c1.366 6.828-3.063 13.458-9.878 14.824-6.674 1.373-13.446-2.959-14.824-9.879l-9.932-49.989zm245.514-245.514 1.649-.825c4.859-2.398 11.53-1.488 15.38 2.363l50.39 50.389c4.92 4.921 4.92 12.893 0 17.814-4.921 4.92-12.893 4.92-17.814 0l-44.806-43.968-53.991 27c2.951 8.369 4.76 18.034 5.394 27.241l80.168 19.834c4.724 1.181 8.341 4.97 9.301 9.743l25.194 125.974c1.366 6.828-3.063 13.458-9.878 14.824-6.674 1.373-13.446-2.959-14.824-9.879l-23.633-118.162-67.536-16.679c-2.745 14.456-8.607 27.747-16.829 39.318l50.654 32.007c4.415 2.793 6.643 8.009 5.621 13.127l-25.194 126.813c-1.378 6.917-8.148 11.254-14.824 9.879-6.816-1.365-11.244-7.996-9.879-14.824l23.498-118.313-45.516-28.759c-10.114-18.925-27.86-33.185-49.193-38.249zm-150.257 150.257c2.087-.265 4.214-.401 6.371-.401 27.79 0 50.39 22.599 50.39 50.39 0 13.407-5.342 25.531-13.907 34.567.636 4.535 1.31 9.077 1.31 13.657v14.762c0 6.963-5.635 12.598-12.598 12.598s-12.597-5.635-12.597-12.598v-14.386c-4.051 1.053-8.223 1.789-12.598 1.789-4.374 0-8.546-.737-12.597-1.789v14.386c0 6.963-5.634 12.598-12.597 12.598s-12.598-5.635-12.598-12.598v-14.762c0-4.58.674-9.122 1.31-13.657-8.565-9.036-13.907-21.16-13.907-34.567 0-2.158.136-4.285.401-6.372zm-127.237 63.597-4.715-23.733c-1.021-5.117 1.218-10.334 5.622-13.126l50.657-32.004c-8.224-11.571-14.088-24.861-16.832-39.319l-66.697 16.677-24.472 118.162c-1.378 6.917-8.148 11.254-14.824 9.879-6.816-1.366-11.244-7.996-9.879-14.824l25.195-125.974c.947-4.773 4.576-8.563 9.3-9.743l80.169-19.835c.633-9.207 2.443-18.875 5.394-27.244l-53.992-26.996-44.808 43.969c-4.921 4.92-12.893 4.92-17.814 0-4.92-4.921-4.92-12.893 0-17.814l51.23-50.39c3.85-3.875 9.681-4.797 14.54-2.362l61.799 30.9c5.603-8.359 12.692-15.51 20.475-21.852l-65.334-81.668-66.816 43.98c-5.807 3.851-13.619 2.276-17.469-3.493-3.863-5.795-2.301-13.606 3.493-17.47l76.424-50.389c5.463-3.642 12.733-2.473 16.83 2.608l74.277 92.837c9.085-4.179 19.008-6.569 29.259-7.942v-77.022c0-6.963 5.634-12.597 12.597-12.597s12.598 5.634 12.598 12.597v77.02c10.25 1.373 20.173 3.763 29.258 7.943l74.276-92.838c4.097-5.08 11.38-6.249 16.83-2.608l28.987 19.113-18.221 18.221-15.134-9.961-65.334 81.668c1.607 1.309 3.185 2.653 4.726 4.035zm333.911-270.271 9.084 5.99c5.794 3.863 7.356 11.675 3.493 17.469-3.863 5.77-11.687 7.344-17.469 3.494l-13.304-8.757z" fill-rule="nonzero"/></svg>