<svg clip-rule="evenodd" fill-rule="evenodd" stroke-linejoin="round" stroke-miterlimit="2" viewBox="0 0 512 512" xmlns="http://www.w3.org/2000/svg"><g fill-rule="nonzero"><path d="m254.46 83.38c-.669 1.115-1.339 2.231-1.896 3.459 2.008-3.906 4.798-7.253 8.256-9.708-2.343 1.451-4.574 3.459-6.36 6.249-.669 1.115 1.786-2.79 0 0z"/><path d="m445.932 412.206c-7.476-4.464-14.729-12.274-13.39-20.977 2.566-17.072 2.789-23.99-.223-28.788-2.119-3.571-6.137-5.579-9.596-6.473 2.232-2.789 3.459-6.024 4.24-12.161 2.055-15.809-3.614-34.222-7.375-49.366-4.96-19.973-11.514-37.953-22.798-55.257-18.399-28.216-41.567-52.224-57.862-81.939-10.824-32.358-4.8-52.554-5.357-73.865-1.005-41.62-30.015-77.325-72.081-77.325h-15.621c-41.843 0-64.717 30.015-64.717 66.948.772 18.595 1.515 37.192 2.232 55.79.858 22.043 2.209 42.028-8.926 61.703-7.848 13.934-21.838 25.028-31.903 37.355-10.628 13.016-14.573 26.41-19.927 41.975-6.681 19.416-23.739 34.485-27.768 54.595-1.85 9.229 3.042 19.925-.926 27.553-4.126 7.932-.907 16.144-3.161 24.192-3.911 13.088-23.132 11.972-33.714 12.841-19.64 1.61-12.331 20.071-8.751 33.14 6.246 22.802-21.803 46.951 12.309 56.316 15.609 4.284 31.896 5.724 47.675 9.283 15.6 3.519 30.034 9.61 45.074 14.798 11.681 4.029 22.608 4.626 33.834-1.375 12.254-6.549 21.141-16.829 35.361-18.968 27.568-4.147 61.178-4.652 88.564.703 8.376 1.638 11.242 7.28 16.631 13.128 9.088 9.862 24.005 11.298 36.592 9.172 13.267-2.243 23.26-10.562 33.123-19.094 13.977-12.089 29.164-20.079 45.515-28.505 8.3-4.277 24.746-10.475 26.956-21.092 2.602-12.51-15.818-19.417-24.01-24.307zm-250.274 61.703c-1.451 14.506-15.51 22.651-28.341 21.535-21.761-1.84-42.245-13.654-63.784-17.574-10.481-1.907-52.834-3.54-52.379-19.056.24-8.214 6.417-13.017 8.443-20.548 3.137-11.659-6.419-22.24-7.052-33.652-.498-9.017 11.973-8.488 18.175-8.986 9.775-.783 21.375-2.245 26.301-12.322 1.785-3.682-.558-16.737 2.12-24.324 3.936-11.331 17.283-9.985 25.998-5.466 19.819 10.117 32.295 39.662 42.995 57.821 10.852 18.418 29.806 39.746 27.524 62.572zm129.767-73.196c2.554 13.152 4.713 27.211 1.897 40.503-2.249 10.618-9.553 17.422-14.171 26.779-2.454-7.587 12.609-18.633 10.935-37.602-.047-.53-1.056-12.142-1.156-12.089-2.208 1.208-4.268 5.663-5.918 7.51-5.366 6.006-12.018 10.776-18.666 15.261-15.395 10.383-32.605 16.801-51.137 18.552-23.432 2.232-42.401-11.716-42.401-11.716 2.809 9.267 10.034 23.432 1.228 31.577 1.945-17.46-5.441-31.309-12.943-46.529 51.744-27.492-46.153-71.854-59.138-89.04-11.689-15.506-6.196-35.516-3.012-48.538-3.842 15.371-4.418 46.815 15.621 52.22 8.839 2.42 6.254-41.364 6.677-46.265 1.763-20.432 8.615-40.165 20.467-56.922 3.792-5.363 2.079-10.637 2.982-17.096 1.889-11.904 8.14-22.927 15.05-32.61 5.768-8.081 1.936-14.079 3.363-23.493.811-5.35 5.711 3.563 6.47 4.775 4.463 7.252 18.634 25.328 27.56 24.547 14.814-1.295 27.551-17.783 40.185-24.599 4.007-2.161 16.079-5.849 17.704-10.747 1.972-5.947-14.133-.18-15.749.651-12.03 6.176-34.61 23.931-48.946 17.066-9.777-4.681-11.929-16.731-19.192-22.874 17.183 15.175 23.989 11.716 30.796 10.154 10.784-2.435 20.974-7.237 31.019-11.716 4.705-2.098 22.435-4.509 24.884-9.708 3.062-6.509-5.635-7.505-9.003-3.994-6.975 7.269-17.689 10.021-26.887 13.152-21.072 7.171-42.003 10.188-57.838-9.604-9.321-11.395 17.36-25.11 24.771-32.135 0 0 1.116-8.034-.669-14.171-2.12-7.252-8.704-10.377-13.278-9.038-4.575 1.228-8.927 6.137-7.588 16.514 1.116 9.261 7.811 12.274 7.811 12.274s-3.013 3.905-5.802 5.244c0 0-.893-.335-3.906-7.029-3.012-6.695-7.364-21.758-.334-34.702 7.029-12.943 21.869-5.802 26.556 4.24 4.351 9.261 2.678 25.329 2.678 25.329 3.746-.941 7.626-1.451 11.492-1.451 4.733 0 7.603 5.092 11.828 5.356-.709 0-.63-20.222-.26-22.403 1.226-7.241 4.588-15.196 11.083-19.216 17.95-12.822 38.607 4.369 38.607 23.655.026 5.005-.153 10.282-1.338 15.175-.736 2.942-1.765 9.449-5.706 10.239-1.278.257-11.92-.48-8.91-3.656 14.29-14.296-2.033-42.631-19.415-27.337-6.25 4.685-6.118 15.435-5.357 22.316 1.225 10.199 22.885 12.877 29.962 15.376 9.176 3.239 8.862 10.74 7.452 19.098-2.12 12.564-3.141 20.968 4.888 31.481 8.195 10.729 14.426 22.412 17.758 35.569 1.655 6.538 1.858 12.099 6.272 17.373 6.676 7.979 11.849 16.52 14.83 26.575 5.83 19.662 7.267 39.524 6.876 59.835-.558 9.148-2.343 16.737 9.261 10.822 4.463-2.232 7.253-3.235 12.274-4.127 3.46-7.031 4.909-20.421 5.021-27.115.223-15.064-.335-46.306-30.907-79.78 0 0 31.801 24.213 36.822 69.18 2.789 24.883-2.232 38.383-2.232 38.383 5.914 1.451 12.051 5.914 15.175 10.935-.149-.246 1.158 1.95 1.315 2.08-10.947-9.117-35.379-14.348-44.273.263-2.232 3.682-3.459 8.48-3.571 13.054-7.922-1.338-13.835 0-18.745 5.467-6.478 7.926-3.353 27.117-1.122 38.722 2.232 11.493-2.231-11.605 0 0zm-109.013-291.001c-.223-5.467-2.343-10.042-5.245-12.05.335-.335.893-.781 1.897-.447 1.562.447 3.906 3.013 4.798 7.03.781 3.236.447 8.592-1.562 8.592-.002-1.043.035-2.084.112-3.125-.223-5.467 0 1.005 0 0zm61.034-13.389c.446-.335 1.228-.67 2.566-.335 2.01.446 4.91 3.124 5.915 6.918.78 3.124.112 8.257-2.455 8.145-.005-1.007.07-2.011.223-3.012-.112-5.133-2.567-9.596-6.249-11.716.446-.335 3.682 2.12 0 0zm152.976 357.056c-19.531 8.427-34.929 22.28-52.573 33.685-15.425 9.972-42.575 9.276-44.657-14.37-1.746-19.834 4.669-39.374 2.053-59.536-1.77-13.656-9.522-32.253-2.567-45.584 3.013-5.691 9.039-6.137 13.947-4.464 3.563 14.804 15.546 26.333 31.243 26.333 19.003 0 26.268-15.63 37.937-27.337 3.794.223 8.257 1.229 9.819 5.357 2.567 6.472-2.119 19.527-2.008 24.882.334 17.518 10.042 21.424 29.457 32.359 17.071 9.818 4.686 16.847-22.651 28.675-26.891 11.604 27.337-11.828 0 0z"/></g></svg>