<svg clip-rule="evenodd" fill-rule="evenodd" stroke-linejoin="round" stroke-miterlimit="1.414" viewBox="0 0 64 64" xmlns="http://www.w3.org/2000/svg"><path d="m32 0c17.661 0 32 14.339 32 32s-14.339 32-32 32-32-14.339-32-32 14.339-32 32-32zm-1.57 43.55a14.788 14.788 0 0 1 -7 1.48 11.235 11.235 0 0 1 -8.61-3.46 12.786 12.786 0 0 1 -3.23-9.09 13.399 13.399 0 0 1 3.64-9.77 12.356 12.356 0 0 1 9.26-3.71c2.028-.077 4.05.263 5.94 1v3.15a11.999 11.999 0 0 0 -6-1.51 9.174 9.174 0 0 0 -7 2.9 10.932 10.932 0 0 0 -2.7 7.75 10.405 10.405 0 0 0 2.52 7.34 8.586 8.586 0 0 0 6.62 2.73 12.425 12.425 0 0 0 6.57-1.69zm21.93-15.23.4-1.86-4.62.01 1.48-7.07h-2.16l-1.51 7.07h-4.43l1.48-7.07h-2.23l-1.48 7.07h-4.87l-.37 1.86h4.87l-1.07 5.27h-4.66l-.35 1.86h4.64l-1.48 7h2.16l1.48-7h4.4l-1.51 7h2.21l1.55-7h4.84l.47-1.86h-4.94l1.1-5.28zm-6.77 0-1.13 5.28h-4.46l1.15-5.28z"/></svg>