<svg clip-rule="evenodd" fill-rule="evenodd" stroke-linejoin="round" stroke-miterlimit="1.414" viewBox="0 0 306 345" xmlns="http://www.w3.org/2000/svg"><path d="m219.407 210.515 82.7 47.747c-2.401 4.16-5.713 7.793-9.357 9.897l-126.5 73.034c-7.287 4.208-19.213 4.208-26.5 0l-126.5-73.034c-3.643-2.103-6.956-5.737-9.357-9.896l60.79-35.098c17.661 30.471 50.635 51.01 88.317 51.01 36.294 0 70.142-19.531 88.334-50.972zm-4.169-74.273 86.87-50.154c2.402 4.159 3.892 8.844 3.892 13.052v146.069c0 4.208-1.492 8.894-3.893 13.053l-82.7-47.747-22.216-12.855-.013.021-44.178-25.506 44.178-25.506.01.018zm-150.555 86.923-60.79 35.097c-2.402-4.159-3.893-8.845-3.893-13.053v-146.069c0-8.415 5.962-18.743 13.25-22.95l126.5-73.034c7.287-4.208 19.213-4.208 26.5 0l126.5 73.034c3.643 2.104 6.956 5.737 9.358 9.897l-86.552 49.971 25.775-14.915c-18.192-31.438-52.039-50.968-88.331-50.968-56.243 0-102 45.757-102 102 0 18.561 4.984 35.981 13.683 50.99zm132.495-25.484c-9.109 15.727-26.034 25.494-44.178 25.494-18.841 0-35.328-10.27-44.158-25.505l44.158-25.495zm-88.336-.011a50.686 50.686 0 0 1 -6.842-25.495c0-28.122 22.878-51 51-51 18.143 0 35.07 9.769 44.177 25.494l-44.177 25.506zm134.824-31.162v-11.333h-11.332v11.333h-11.334v11.333h11.334v11.334h11.332v-11.334h11.334v-11.333zm42.5 0v-11.333h-11.332v11.333h-11.334v11.333h11.334v11.334h11.332v-11.334h11.334v-11.333z" fill-rule="nonzero"/></svg>