<svg clip-rule="evenodd" fill-rule="evenodd" stroke-linejoin="round" stroke-miterlimit="2" viewBox="0 0 346 346" xmlns="http://www.w3.org/2000/svg"><g fill-rule="nonzero"><path d="m127.674 267.411s-13.198 7.676 9.393 10.273c27.369 3.122 41.357 2.674 71.517-3.034 0 0 7.93 4.972 19.004 9.278-67.612 28.978-153.019-1.678-99.914-16.517"/><path d="m119.413 229.598s-14.804 10.957 7.804 13.296c29.236 3.016 52.325 3.263 92.277-4.43 0 0 5.526 5.602 14.215 8.666-81.747 23.903-172.798 1.885-114.296-17.532"/><path d="m189.062 165.453c16.66 19.181-4.377 36.441-4.377 36.441s42.302-21.837 22.874-49.183c-18.144-25.501-32.058-38.172 43.268-81.858 0 0-118.237 29.53-61.765 94.6"/><path d="m278.484 295.38s9.768 8.048-10.756 14.274c-39.027 11.823-162.433 15.393-196.714.471-12.324-5.361 10.786-12.801 18.056-14.362 7.581-1.644 11.913-1.338 11.913-1.338-13.704-9.654-88.582 18.957-38.034 27.151 137.853 22.356 251.293-10.067 215.535-26.196"/><path d="m134.021 190.419s-62.772 14.909-22.229 20.323c17.119 2.292 51.244 1.774 83.031-.89 25.978-2.191 52.063-6.85 52.063-6.85s-9.16 3.923-15.788 8.448c-63.744 16.764-186.885 8.965-151.434-8.183 29.981-14.492 54.357-12.848 54.357-12.848"/><path d="m246.627 253.361c64.799-33.672 34.838-66.03 13.926-61.671-5.125 1.067-7.411 1.991-7.411 1.991s1.903-2.98 5.537-4.271c41.371-14.544 73.188 42.898-13.354 65.648 0 .001 1.002-.895 1.302-1.697"/><path d="m207.559.31s35.887 35.899-34.036 91.101c-56.072 44.281-12.786 69.529-.024 98.376-32.73-29.53-56.749-55.526-40.635-79.72 23.652-35.515 89.175-52.734 74.695-109.757"/><path d="m140.389 344.604c62.198 3.982 157.712-2.209 159.974-31.64 0 0-4.349 11.157-51.404 20.018-53.088 9.99-118.564 8.824-157.399 2.421.001-.001 7.95 6.58 48.829 9.201"/></g></svg>