<svg clip-rule="evenodd" fill-rule="evenodd" stroke-linejoin="round" stroke-miterlimit="2" viewBox="0 0 92 92" xmlns="http://www.w3.org/2000/svg"><path d="m90.154 41.965-40.119-40.117c-2.309-2.311-6.056-2.311-8.369 0l-8.33 8.331 10.567 10.568c2.456-.83 5.273-.273 7.23 1.685 1.969 1.969 2.52 4.81 1.67 7.275l10.185 10.184c2.465-.849 5.307-.3 7.276 1.671 2.75 2.75 2.75 7.206 0 9.958-2.752 2.751-7.208 2.751-9.961 0-2.069-2.071-2.58-5.11-1.531-7.659l-9.5-9.499v24.997c.669.332 1.302.774 1.861 1.332 2.75 2.749 2.75 7.205 0 9.959-2.75 2.749-7.209 2.749-9.957 0-2.75-2.754-2.75-7.21 0-9.959.68-.68 1.467-1.193 2.306-1.537v-25.228c-.839-.344-1.625-.853-2.306-1.537-2.083-2.082-2.584-5.139-1.516-7.697l-10.418-10.42-27.51 27.507c-2.309 2.313-2.309 6.06 0 8.371l40.122 40.118c2.309 2.31 6.055 2.31 8.369 0l39.931-39.931c2.312-2.312 2.312-6.061 0-8.372z" fill-rule="nonzero"/></svg>